<svg width="130" height="130" viewBox="0 0 130 130" fill="none" xmlns="http://www.w3.org/2000/svg">
<g clip-path="url(#clip0_16_537)">
<path d="M121.496 40.0305L40.0305 8.09976L8.09976 89.5656L89.5656 121.496L121.496 40.0305Z" fill="#FFCA28"/>
<path d="M62.9347 95.2423L70.4884 93.624C70.3797 95.2852 71.9817 99.9593 75.7416 101.433C79.5015 102.907 82.0521 101.537 82.5858 100.176C84.04 96.4656 80.7134 93.6527 79.1156 92.3017C78.8549 92.0814 78.6406 91.9001 78.5001 91.7601C78.428 91.6882 78.3165 91.5864 78.1732 91.4561C76.4294 89.8687 69.9958 84.012 73.2803 75.6321C76.898 66.4023 86.2214 68.8322 88.2359 69.6218C89.5536 70.1383 95.8266 72.7833 96.6579 79.9503L89.2471 81.7309C88.9846 78.6465 87.1996 76.962 85.895 76.4507C82.6721 75.1875 81.0746 77.2868 80.653 78.3624C79.4702 81.3802 82.4416 84.1052 84.9504 86.406C85.6069 87.008 86.2316 87.5808 86.7419 88.1225C89.3679 90.9085 93.1358 95.2605 90.0609 103.106C88.5207 107.035 82.7312 112.105 74.434 108.853C63.2883 104.485 62.9567 96.6351 62.9347 95.2423Z" fill="#3E3E3E"/>
<path d="M33.5308 84.6263L41.3372 83.1099C41.2484 84.7778 42.0853 88.2455 44.847 89.3279C47.609 90.4105 50.1346 88.1278 50.668 86.7671L61.1539 60.014L68.8422 63.0275L58.3563 89.7805C57.0345 93.5194 52.0952 100.098 43.063 96.5573C34.7587 93.3024 33.2408 87.0139 33.5308 84.6263Z" fill="#3E3E3E"/>
</g>
<defs>
<clipPath id="clip0_16_537">
<rect width="100" height="100" fill="white" transform="translate(36.4922) rotate(21.4028)"/>
</clipPath>
</defs>
</svg>
