<svg width="182" height="182" viewBox="0 0 182 182" fill="none" xmlns="http://www.w3.org/2000/svg">
<g clip-path="url(#clip0_16_534)">
<path d="M103.052 87.7514C101.428 81.2267 94.6563 77.2944 87.9261 78.9695C81.1967 80.6444 77.0572 87.2926 78.6811 93.8173C80.3053 100.343 87.0781 104.275 93.8075 102.6C100.538 100.925 104.676 94.277 103.052 87.7514Z" fill="#53C1DE"/>
<path fill-rule="evenodd" clip-rule="evenodd" d="M124.983 58.9994C125.033 48.2202 123.588 28.6138 110.599 25.0777C97.6695 21.5561 85.927 37.393 79.945 46.6336C70.3703 41.3422 52.1723 33.0125 42.3708 42.2426C32.6106 51.4341 40.7111 69.0528 45.8808 78.6005C36.0231 84.1489 19.4438 94.9415 22.6358 107.767C25.8189 120.555 45.6415 122.874 56.8866 123.167C56.7999 134.083 58.0127 153.136 70.9536 156.662C83.9805 160.209 96.1752 144.621 102.21 135.282C111.886 140.671 129.475 148.929 139.241 139.732C149.037 130.506 141.455 112.695 136.27 103.089C145.742 97.6322 162.241 86.4312 159.098 73.8021C155.936 61.1003 136.122 59.3117 124.983 58.9994ZM133.329 98.0458C130.282 93.1746 126.548 88.1176 122.247 83.004C123.554 76.6406 124.409 70.5185 124.777 64.8336C132.947 65.0797 150.92 65.8162 153.268 75.253C155.639 84.7785 140.797 93.7316 133.329 98.0458ZM135.102 135.567C127.815 142.429 112.402 134.182 105.26 130.218C108.09 125.183 110.753 119.486 113.193 113.288C119.65 111.079 125.651 108.599 130.988 105.926C134.646 112.723 142.421 128.675 135.102 135.567ZM72.6475 151.04C62.9983 148.413 62.822 131.185 62.8834 123.145C68.7712 122.953 75.1733 122.275 81.9157 121.149C86.9727 125.361 92.1053 129.111 97.1221 132.266C93.3483 138.109 82.3418 153.679 72.6475 151.04ZM28.465 106.316C26.0853 96.7548 41.5241 87.7402 48.8012 83.6552C51.8495 88.6154 55.491 93.6887 59.6114 98.71C58.3114 105.17 57.4631 111.456 57.0957 117.334C49.1343 117.12 30.8461 115.883 28.465 106.316ZM46.5089 46.4074C53.8261 39.5172 69.9162 47.8576 76.8644 51.6848C73.9275 56.799 71.1793 62.4732 68.7113 68.5262C62.437 70.7003 56.5238 73.1556 51.1847 75.8022C47.0177 68.101 39.1997 53.2902 46.5089 46.4074ZM105.807 65.8174C110.293 65.2664 114.641 64.9368 118.774 64.8289C118.508 68.776 117.993 72.9621 117.242 77.3092C113.594 73.3286 109.785 69.4862 105.807 65.8174ZM81.9563 54.7068C85.348 56.8618 88.8258 59.3453 92.3266 62.1075C86.8918 63.1983 81.5095 64.537 76.1968 66.1182C78.0045 62.0685 79.9368 58.2434 81.9563 54.7068ZM61.301 91.2282C58.6317 87.7471 56.224 84.2703 54.1152 80.8588C57.7985 79.045 61.7788 77.3211 65.9742 75.7204C64.169 80.8186 62.6098 85.9951 61.301 91.2282ZM76.1643 116.132C71.5752 116.76 67.1971 117.154 63.1003 117.301C63.3663 113.23 63.8749 108.939 64.6162 104.52C68.2712 108.569 72.1268 112.444 76.1643 116.132ZM100.168 127.189C96.6857 124.986 93.1339 122.474 89.5865 119.705C95.0415 118.566 100.456 117.219 105.801 115.64C104.015 119.803 102.129 123.673 100.168 127.189ZM120.555 90.3816C123.382 93.9587 125.89 97.4756 128.034 100.88C124.295 102.74 120.199 104.508 115.829 106.152C117.624 100.958 119.212 95.6978 120.555 90.3816ZM108.592 108.681C100.469 111.311 92.1496 113.375 83.7516 114.913C77.397 109.428 71.4727 103.471 66.0541 97.1045C67.8426 88.96 70.2562 80.942 73.2787 73.1343C81.4024 70.4685 89.7275 68.3945 98.1543 66.9468C104.444 72.4363 110.323 78.3709 115.788 84.6406C113.959 92.7913 111.527 100.829 108.592 108.681ZM108.906 30.6988C118.597 33.3391 119.016 51.1788 118.986 58.9891C113.01 59.1314 106.627 59.7191 100.045 60.7352C95.0063 56.4918 89.9496 52.7515 85.0355 49.648C89.4233 42.8796 99.3079 28.0846 108.906 30.6988Z" fill="#53C1DE"/>
</g>
<defs>
<clipPath id="clip0_16_534">
<rect width="150" height="150" fill="white" transform="translate(0 36.2288) rotate(-13.9766)"/>
</clipPath>
</defs>
</svg>
